<svg width="75" height="19" viewBox="0 0 75 19" fill="none" xmlns="http://www.w3.org/2000/svg">
<path d="M6.77653 3.78561C7.69542 3.85588 8.20074 3.90515 8.75267 3.86242C10.1318 3.86171 11.4642 3.953 12.8433 3.95229C13.3953 3.90956 13.9938 3.77482 14.5698 3.57996C15.215 3.35323 15.7474 2.82586 15.7519 2.1891C15.7339 1.49221 15.2301 1.23069 14.5639 1.18504C12.1982 0.93509 9.78745 0.564884 7.4218 0.314934C6.48035 0.184529 5.49228 0.146123 4.52677 0.167844C1.51593 0.144629 -0.057205 1.57461 0.245012 4.32667C0.700597 8.13638 1.45546 11.8787 2.11859 15.5928C2.22836 16.318 2.72915 17.004 3.18482 17.5698C3.54875 18.1073 4.12174 18.3369 5.06772 17.8306C5.37907 16.0652 5.52951 14.3034 5.35811 12.5489C5.23182 10.9146 5.08298 9.22016 5.23342 7.45838C5.85001 8.02053 6.48916 8.64282 7.17493 9.1731C9.16306 10.7958 11.1046 12.5105 13.2551 13.9174C17.7157 16.9397 22.8861 17.0962 28.6717 14.7832C31.7608 13.501 34.6694 11.7378 37.4638 9.88627C38.7105 9.10029 39.9573 8.31431 41.2041 7.52834C44.251 5.70139 47.4288 4.87197 50.7164 4.76769C56.0042 4.5881 60.6377 5.90876 64.4561 8.7333C67.154 10.7342 69.5046 13.1067 71.5318 15.6987C71.8281 16.0558 71.9168 16.5086 72.2131 16.8657C72.4642 17.1026 72.9214 17.4561 73.2207 17.3887C73.5891 17.2895 74.2358 16.8505 74.3306 16.4542C74.5411 15.9341 74.4539 15.2691 74.2735 14.7881C73.9351 13.8862 73.3892 13.0799 72.8433 12.2736C69.5198 7.74019 65.3631 4.01374 59.3986 2.38953C54.8793 1.15725 50.1691 0.929729 45.2182 2.22348C42.1095 3.02103 39.3393 4.72048 36.5916 6.48005C34.8831 7.54927 33.2197 8.73874 31.4887 9.74784C29.9427 10.6012 28.3289 11.2741 26.6927 11.887C23.766 12.9533 20.9853 12.8946 18.4648 11.7992C17.3188 11.3399 16.2886 10.7568 15.3051 10.0816C12.7665 8.28937 10.2746 6.40514 7.736 4.6129C7.43823 4.46802 7.25627 4.19925 6.77653 3.78561Z" fill="#31092C"/>
</svg>
