<svg width="97" height="48" viewBox="0 0 97 48" fill="none" xmlns="http://www.w3.org/2000/svg">
<path d="M43.5451 14.706C43.2264 14.4672 43.0598 14.2179 42.8268 14.147C34.7685 9.3119 26.4493 5.27634 17.399 3.20159C13.2995 2.26544 9.1624 2.02673 5.03974 2.0476C3.96983 2.03379 2.81903 1.93863 1.74432 1.83829C1.35911 1.77773 0.893023 1.63583 0.574279 1.39701C0.412502 1.23434 0.236294 0.812078 0.297941 0.547291C0.359589 0.282507 0.73036 0.0834766 0.958595 0.067895C11.0963 -0.276766 21.0923 0.951697 30.5768 5.342C35.4379 7.61588 40.2278 9.9815 44.8183 12.8819C45.2941 13.1968 46.0028 13.5827 46.4545 13.465C52.326 11.935 58.1705 12.6652 63.8349 14.2762C72.6001 16.7179 81.2372 19.6026 89.9408 22.309C90.483 22.4457 91.106 22.6638 91.862 22.5253C87.912 17.4097 83.8907 12.3859 79.8598 7.18896C80.6582 6.43959 81.2765 6.5711 81.9091 6.9622C82.6227 7.43464 83.4123 7.90188 84.0595 8.55257C87.5473 12.2231 91.0351 15.8936 94.4517 19.6559C95.1845 20.4744 95.7748 21.4764 96.289 22.4836C97.2413 24.5032 96.4958 26.2044 94.537 26.6856C90.6907 27.5562 86.9156 28.3351 83.0597 29.0326C81.9281 29.2836 81.2146 28.8111 81.0095 27.8697C80.8853 27.0096 81.3746 26.1945 82.5013 25.857C84.4553 25.2893 86.4189 24.8946 88.6011 24.3114C88.2063 24.0777 88.0445 23.9151 87.8115 23.8441C79.0511 21.489 70.2859 19.0473 61.459 16.8705C58.8242 16.1818 55.9949 16.1143 53.3081 15.8635C52.2334 15.7631 51.1018 16.0141 49.7324 16.1076C50.2226 16.6821 50.627 17.0888 50.9506 17.4142C53.6815 19.8335 56.2035 22.6145 58.217 25.8645C59.983 28.784 61.15 31.9181 61.276 35.5576C61.2672 36.7742 61.2633 38.0773 61.0263 39.3095C60.0312 44.7627 55.9296 47.9091 50.9171 47.0353C44.6778 46.0715 36.7564 39.5767 36.2697 29.4475C35.9522 23.7365 38.0702 19.249 42.0813 15.8482C42.5185 15.4709 43.0318 15.0884 43.5451 14.706ZM59.1506 35.7895C58.8917 32.5066 57.977 29.7896 56.4681 27.3737C54.1879 23.447 51.1141 20.3562 47.8313 17.6271C47.1082 16.9816 46.4235 17.0284 45.601 17.3451C41.3511 19.1987 38.4445 24.6086 38.8804 29.7035C39.4935 36.6104 45.0613 43.3527 51.1532 44.4134C55.2431 45.1765 58.2372 42.7137 58.9761 38.1466C59.0802 37.2709 59.1034 36.3139 59.1506 35.7895Z" fill="#31092C"/>
</svg>
