<svg width="40" height="56" viewBox="0 0 40 56" fill="none" xmlns="http://www.w3.org/2000/svg">
<path d="M25.1811 6.01142C25.2166 9.62575 25.4296 13.2401 25.8912 16.8087C25.9267 16.9459 25.9267 17.0832 25.9622 17.2204C26.3172 19.691 27.3113 21.4753 29.0155 22.7106C30.1516 23.5341 31.3232 24.2661 32.6369 24.5406C34.6251 24.9981 36.6488 25.5014 38.637 26.0046C39.205 26.1419 39.5956 26.5994 39.6666 27.2399C39.7376 27.8347 39.4536 28.4294 38.9565 28.7497C38.6725 28.887 38.3529 28.9785 38.0689 29.1157C36.4002 29.6647 34.7316 30.3052 33.1694 31.3118C30.6487 32.9131 28.8025 35.3836 27.7374 38.7234C26.4948 42.5665 25.6427 46.5469 25.2166 50.6645C25.1101 51.854 24.9681 53.0435 24.8616 54.2331C24.7906 55.0108 24.4711 55.4683 23.974 55.5141C23.477 55.6056 23.0864 55.2853 22.8379 54.5991C22.7314 54.2788 22.6604 53.9585 22.5894 53.6383C21.8083 50.2985 20.7077 47.1416 19.323 44.1221C19.0035 43.4816 18.684 42.7953 18.2934 42.2463C16.5183 39.8215 14.6011 37.5797 12.3998 35.7954C10.5892 34.3313 8.60096 33.5078 6.54176 32.9131C4.87309 32.4555 3.20442 32.0438 1.53576 31.632C0.896693 31.4948 0.541657 31.0373 0.506154 30.3967C0.47065 29.7105 0.825686 29.1615 1.46475 28.9785C1.64227 28.9327 1.85529 28.887 2.06831 28.887C3.06241 29.0242 3.9855 28.6582 4.90859 28.4752C6.79028 28.0634 8.60096 27.3314 10.4116 26.5994C11.3347 26.2334 12.2223 25.7759 13.1454 25.3641C16.1277 23.9916 17.9384 21.2008 19.0745 17.5407C19.3585 16.5799 19.5716 15.5734 19.8911 14.6584C20.3526 13.2858 20.8497 11.9133 21.3112 10.5408C21.5953 9.763 21.9148 8.93948 22.0923 8.11597C22.5184 6.14867 22.9089 4.18137 23.3349 2.16832C23.4059 1.84807 23.5125 1.52781 23.619 1.1618C23.761 0.70429 24.0095 0.429783 24.4 0.475534C24.8261 0.521285 25.0746 0.887294 25.1456 1.39056C25.1811 1.80232 25.1811 2.16832 25.1811 2.58008C25.1811 3.72386 25.1811 4.86764 25.1811 6.01142Z" fill="#31092C"/>
</svg>
