<svg width="47" height="61" viewBox="0 0 47 61" fill="none" xmlns="http://www.w3.org/2000/svg">
<path d="M41.4744 34.7037C39.7366 34.8614 37.9988 34.9402 36.3005 35.1766C33.7728 35.5707 31.8375 36.9107 30.6526 39.1965C29.8627 40.7335 29.1518 42.3099 28.5593 43.9651C26.9795 48.2609 26.0316 52.7537 24.8467 57.1282C24.6887 57.7194 24.6492 58.3893 24.5307 58.9805C24.4912 59.217 24.4517 59.4928 24.3333 59.6899C24.0568 60.281 23.5433 60.5963 22.9509 60.5175C22.3585 60.4387 21.8845 59.9658 21.845 59.2958C21.8055 58.9411 21.8055 58.547 21.8845 58.1529C22.1215 56.6553 22.0425 55.1971 21.8845 53.7389C21.5686 50.862 21.1341 47.985 20.2257 45.2263C19.0803 41.9552 17.3425 39.0783 14.6173 36.8319C13.2349 35.689 11.8131 34.5855 10.3912 33.4426C8.21896 31.7085 5.73073 30.5656 3.1635 29.541C2.76854 29.3833 2.29459 29.3439 1.82064 29.1863C1.50467 29.1074 1.14921 29.0286 0.833243 28.871C0.161814 28.5557 -0.114657 27.8857 0.0433267 27.2157C0.20131 26.5852 0.793747 26.1911 1.50467 26.2699C2.01812 26.3093 2.57106 26.4275 3.08451 26.5852C6.0072 27.4916 9.00888 27.2946 12.0106 27.0187C13.1164 26.9399 14.2223 26.8216 15.2887 26.5852C17.777 25.994 19.7122 24.6147 20.8576 22.2894C21.766 20.4766 22.398 18.5849 22.8324 16.5749C23.5433 13.4615 24.5307 10.3875 24.9257 7.19527C25.1232 5.57944 25.3602 3.96361 25.5576 2.30838C25.6366 1.87486 25.6761 1.44135 25.7946 1.00784C26.0316 0.574322 26.387 0.219628 26.9005 0.180218C27.4139 0.140808 27.8879 0.41668 28.0459 0.968426C28.2433 1.55958 28.4013 2.19015 28.4408 2.82071C28.6383 5.73708 28.8358 8.65345 29.0333 11.6092C29.2307 14.2891 29.3492 16.969 29.6257 19.6095C29.8627 21.7771 30.6131 23.8264 31.8375 25.6787C32.9434 27.3734 34.4837 28.4375 36.3005 29.1863C37.4854 29.6592 38.6308 30.1715 39.8156 30.5656C40.4476 30.8021 41.1585 30.8809 41.8299 31.0385C43.1333 31.3538 44.4761 31.6297 45.7795 31.9844C46.3719 32.142 46.7669 32.5756 46.8064 33.2061C46.8854 33.7973 46.5299 34.3884 45.898 34.6249C45.4635 34.7825 44.9896 34.9008 44.5156 34.9008C43.4887 34.9402 42.4224 34.9008 41.3955 34.9008C41.4745 34.8219 41.4744 34.7431 41.4744 34.7037Z" fill="#31092C"/>
</svg>
