<svg width="180" height="180" viewBox="0 0 180 180" fill="none" xmlns="http://www.w3.org/2000/svg">
<path d="M153.75 18.75H26.25L37.5 146.25L90 161.25L142.5 146.25L153.75 18.75Z" fill="#0277BD"/>
<path d="M90 30V149.625L132 137.625L141.375 30H90Z" fill="#039BE5"/>
<path d="M124.125 48.75H90V63.75H108.375L107.25 78.75H90V93.75H106.5L105.375 110.625L90 115.875V131.625L119.625 121.875L122.25 78.75L124.125 48.75Z" fill="white"/>
<path d="M90 48.75V63.75H56.625L55.5 48.75H90ZM72.75 78.75L73.5 93.75H90V78.75H72.75ZM74.25 101.25H59.25L60.375 121.875L90 131.625V115.875L74.625 110.625L74.25 101.25Z" fill="#EEEEEE"/>
</svg>
