<svg width="113" height="150" viewBox="0 0 113 150" fill="none" xmlns="http://www.w3.org/2000/svg">
<g clip-path="url(#clip0_21_30)">
<path d="M28.2556 150C43.8465 150 56.5 138.8 56.5 125V100H28.2556C12.6648 100 0.0112915 111.2 0.0112915 125C0.0112915 138.8 12.6648 150 28.2556 150Z" fill="#0ACF83"/>
<path d="M0.0112915 75C0.0112915 61.2 12.6648 50 28.2556 50H56.5V100H28.2556C12.6648 100 0.0112915 88.8 0.0112915 75Z" fill="#A259FF"/>
<path d="M0.0112915 25C0.0112915 11.2 12.6648 0 28.2556 0H56.5V50H28.2556C12.6648 50 0.0112915 38.8 0.0112915 25Z" fill="#F24E1E"/>
<path d="M56.5 0H84.7443C100.335 0 112.989 11.2 112.989 25C112.989 38.8 100.335 50 84.7443 50H56.5V0Z" fill="#FF7262"/>
<path d="M112.989 75C112.989 88.8 100.335 100 84.7443 100C69.1535 100 56.5 88.8 56.5 75C56.5 61.2 69.1535 50 84.7443 50C100.335 50 112.989 61.2 112.989 75Z" fill="#1ABCFE"/>
</g>
<defs>
<clipPath id="clip0_21_30">
<rect width="113" height="150" fill="white"/>
</clipPath>
</defs>
</svg>
