<svg width="139" height="136" viewBox="0 0 139 136" fill="none" xmlns="http://www.w3.org/2000/svg">
<g clip-path="url(#clip0_31_3)">
<path d="M5.09132 58.2637L45.0033 18.2827L56.673 30.0215C55.0158 35.8909 57.7088 42.3127 63.0948 45.4201V83.6748C58.9517 86.0225 56.1896 90.5109 56.1896 95.6207C56.1896 103.248 62.3728 109.431 70 109.431C77.6273 109.431 83.8104 103.248 83.8104 95.6207C83.8104 90.5109 81.0483 86.0225 76.9052 83.6748V50.1156L91.1989 64.5474C90.7155 65.5832 90.7155 66.7571 90.7155 68C90.7155 75.6273 96.8986 81.8104 104.526 81.8104C112.153 81.8104 118.336 75.6273 118.336 68C118.336 60.3728 112.153 54.1896 104.526 54.1896C103.283 54.1896 102.109 54.1896 101.073 54.673L83.327 36.9267C85.1223 30.5049 81.8079 23.4616 75.386 20.7686C72.4168 19.6637 69.3095 19.3875 66.5474 20.1471L54.8086 8.47736L60.2637 3.09132C65.6497 -2.36377 74.3503 -2.36377 79.7363 3.09132L134.909 58.2637C140.364 63.6497 140.364 72.3503 134.909 77.7363L79.7363 132.909C74.3503 138.364 65.6497 138.364 60.2637 132.909L5.09132 77.7363C-0.363773 72.3503 -0.363773 63.6497 5.09132 58.2637Z" fill="#E64A19"/>
</g>
<defs>
<clipPath id="clip0_31_3">
<rect width="138" height="135" fill="white" transform="translate(0.5 0.5)"/>
</clipPath>
</defs>
</svg>
