<svg width="180" height="180" viewBox="0 0 180 180" fill="none" xmlns="http://www.w3.org/2000/svg">
<path d="M153.75 18.75H26.25L37.5 146.25L90 161.25L142.5 146.25L153.75 18.75Z" fill="#E65100"/>
<path d="M90 30V149.625L132 137.625L141.375 30H90Z" fill="#FF6D00"/>
<path d="M90 93.75V78.75H122.25L119.625 121.875L90 131.625V115.875L105.375 110.625L106.5 93.75H90ZM123.375 63.75L124.5 48.75H90V63.75H123.375Z" fill="white"/>
<path d="M90 115.875V131.625L60.375 121.875L58.875 101.25H73.875L74.625 110.625L90 115.875ZM71.625 63.75H90V48.75H55.875L58.5 93.75H90V78.75H72.75L71.625 63.75Z" fill="#EEEEEE"/>
</svg>
