<svg width="180" height="180" viewBox="0 0 180 180" fill="none" xmlns="http://www.w3.org/2000/svg">
<path d="M22.5 157.5V22.5H157.5V157.5H22.5Z" fill="#FFD600"/>
<path d="M110.767 123.551C113.362 127.766 116.182 131.805 122.156 131.805C127.174 131.805 129.806 129.311 129.806 125.861C129.806 121.732 127.084 120.266 121.564 117.863L118.537 116.573C109.804 112.868 103.995 108.225 103.995 98.4188C103.995 89.3813 110.914 82.5037 121.725 82.5037C129.424 82.5037 134.955 85.17 138.945 92.1525L129.517 98.1787C127.444 94.4737 125.201 93.015 121.725 93.015C118.177 93.015 115.931 95.2537 115.931 98.1787C115.931 101.794 118.181 103.256 123.375 105.495L126.401 106.785C136.695 111.169 142.5 115.646 142.5 125.711C142.5 136.556 133.935 142.5 122.438 142.5C111.191 142.5 104.805 136.856 101.25 129.87L110.767 123.551ZM67.32 123.859C69.2175 127.256 72.1012 129.87 76.2487 129.87C80.2162 129.87 82.5 128.303 82.5 122.209V82.5H94.9987V124.129C94.9987 136.755 87.675 142.5 76.98 142.5C67.3162 142.5 60.3412 135.952 57.4987 129.87L67.32 123.859Z" fill="#000001"/>
</svg>
