<svg width="139" height="136" viewBox="0 0 139 136" fill="none" xmlns="http://www.w3.org/2000/svg">
<g clip-path="url(#clip0_18_58)">
<path d="M24.9375 0.513672H114.062C127.575 0.513672 138.5 11.473 138.5 25.0279V110.972C138.5 124.527 127.575 135.486 114.062 135.486H24.9375C11.425 135.486 0.5 124.527 0.5 110.972V25.0279C0.5 11.473 11.425 0.513672 24.9375 0.513672Z" fill="#001E36"/>
<path d="M31.55 95.1675V35.8143C31.55 35.4105 31.7225 35.1798 32.125 35.1798C33.1025 35.1798 34.0225 35.1798 35.345 35.1221C36.725 35.0645 38.1625 35.0645 39.715 35.0068C41.2675 34.9491 42.935 34.9491 44.7175 34.8914C46.5 34.8337 48.225 34.8337 49.95 34.8337C54.665 34.8337 58.575 35.4105 61.795 36.6218C64.67 37.6024 67.315 39.2175 69.5 41.3516C71.34 43.1974 72.7775 45.4469 73.6975 47.9272C74.56 50.3498 75.02 52.83 75.02 55.4257C75.02 60.3862 73.87 64.4815 71.57 67.7116C69.27 70.9417 66.05 73.3643 62.3125 74.7486C58.4025 76.1906 54.09 76.7098 49.375 76.7098C47.995 76.7098 47.075 76.7098 46.5 76.6521C45.925 76.5944 45.12 76.5944 44.0275 76.5944V95.1098C44.085 95.5136 43.7975 95.8597 43.395 95.9174H32.24C31.78 95.9174 31.55 95.6866 31.55 95.1675ZM44.085 46.3122V65.6928C44.89 65.7505 45.6375 65.8082 46.3275 65.8082H49.375C51.6175 65.8082 53.86 65.4621 55.9875 64.7699C57.8275 64.2508 59.4375 63.1549 60.7025 61.7128C61.91 60.2708 62.485 58.3097 62.485 55.7718C62.5425 53.9837 62.0825 52.1956 61.1625 50.6382C60.185 49.1385 58.805 47.9849 57.1375 47.3504C55.01 46.4852 52.71 46.1391 50.3525 46.1968C48.8575 46.1968 47.535 46.1968 46.4425 46.2545C45.2925 46.1968 44.4875 46.2545 44.085 46.3122ZM110.9 62.1743C109.175 61.2514 107.335 60.6169 105.38 60.2131C103.252 59.7517 101.125 59.4633 98.94 59.4633C97.79 59.4056 96.5825 59.5787 95.49 59.8671C94.7425 60.0401 94.11 60.4439 93.7075 61.0207C93.42 61.4821 93.2475 62.0589 93.2475 62.578C93.2475 63.0972 93.4775 63.6163 93.8225 64.0777C94.34 64.7122 95.03 65.2313 95.7775 65.6351C97.1 66.3273 98.48 66.9618 99.86 67.5386C102.965 68.5768 105.955 70.0188 108.715 71.7492C110.612 72.9605 112.165 74.5756 113.257 76.5367C114.177 78.3825 114.637 80.4013 114.58 82.4778C114.637 85.1888 113.832 87.8998 112.337 90.1493C110.727 92.4565 108.485 94.2446 105.897 95.2829C103.08 96.4942 99.63 97.1286 95.49 97.1286C92.845 97.1286 90.2575 96.8979 87.67 96.3788C85.6575 96.0327 83.645 95.3982 81.805 94.533C81.4025 94.3023 81.115 93.8985 81.1725 93.4371V83.4007C81.1725 83.2277 81.23 82.9969 81.4025 82.8816C81.575 82.7662 81.7475 82.8239 81.92 82.9392C84.1625 84.2659 86.52 85.1888 89.05 85.7656C91.235 86.3424 93.535 86.6308 95.835 86.6308C98.02 86.6308 99.5725 86.3424 100.607 85.8233C101.527 85.4195 102.16 84.4389 102.16 83.4007C102.16 82.5932 101.7 81.8433 100.78 81.0935C99.86 80.3436 97.9625 79.4784 95.145 78.3825C92.2125 77.3442 89.51 75.9599 86.98 74.2295C85.1975 72.9605 83.7025 71.2878 82.61 69.3267C81.69 67.4809 81.23 65.4621 81.2875 63.4433C81.2875 60.963 81.9775 58.5981 83.2425 56.4639C84.68 54.1567 86.8075 52.3109 89.28 51.1573C91.9825 49.773 95.375 49.1385 99.4575 49.1385C101.815 49.1385 104.23 49.3115 106.587 49.6576C108.312 49.8883 109.98 50.3498 111.532 50.9843C111.762 51.042 111.993 51.2727 112.107 51.5034C112.165 51.7341 112.222 51.9648 112.222 52.1956V61.5975C112.222 61.8282 112.107 62.0589 111.935 62.1743C111.417 62.2896 111.13 62.2896 110.9 62.1743Z" fill="#31A8FF"/>
</g>
<defs>
<clipPath id="clip0_18_58">
<rect width="138" height="135" fill="white" transform="translate(0.5 0.5)"/>
</clipPath>
</defs>
</svg>
