<svg width="180" height="180" viewBox="0 0 180 180" fill="none" xmlns="http://www.w3.org/2000/svg">
<path d="M90 127.5C41.625 127.5 3.75 111 3.75 90C3.75 69 41.625 52.5 90 52.5C138.375 52.5 176.25 69 176.25 90C176.25 111 138.375 127.5 90 127.5ZM90 60C42.75 60 11.25 75.375 11.25 90C11.25 104.625 42.75 120 90 120C137.25 120 168.75 104.625 168.75 90C168.75 75.375 137.25 60 90 60Z" fill="#80DEEA"/>
<path d="M56.625 167.25C52.875 167.25 49.875 166.5 46.875 164.625C28.5 154.125 33.375 113.25 57.375 71.2501C68.625 51.7501 82.5 35.2501 96 24.7501C110.625 13.5001 123.75 10.1251 132.75 15.3751C142.125 20.6251 145.5 33.7501 143.25 52.1251C141 69.3751 133.5 89.6251 122.25 109.125C111 128.625 97.125 145.125 83.625 155.625C73.875 163.125 64.5 167.25 56.625 167.25ZM123.375 20.2501C117.375 20.2501 109.5 23.6251 100.875 30.3751C88.125 40.5001 75 56.2501 64.125 75.0001C40.5 115.875 38.25 151.125 50.625 158.25C57 162 67.5 158.625 79.125 149.625C91.875 139.5 105 123.75 115.875 105C126.75 86.2501 133.875 67.1251 136.125 51.0001C138 36.0001 135.75 25.5001 129.375 21.7501C127.5 21.0001 125.625 20.2501 123.375 20.2501Z" fill="#80DEEA"/>
<path d="M123.75 167.25C105 167.25 78 144.375 57.75 108.75C33.375 66.75 28.5 25.875 46.875 15.375C65.25 4.87502 98.25 29.25 122.625 71.25C133.875 90.75 141.375 111 143.625 128.25C146.25 146.625 142.5 159.375 133.125 165C130.125 166.5 127.125 167.25 123.75 167.25ZM50.625 21.75C38.25 28.875 40.5 64.125 64.125 105C87.75 145.875 117 165.375 129.375 158.25C135.75 154.5 138 144 136.125 129C133.875 112.875 126.75 93.75 115.875 75C92.25 34.125 63 14.625 50.625 21.75Z" fill="#80DEEA"/>
<path d="M90 105C98.2843 105 105 98.2843 105 90C105 81.7157 98.2843 75 90 75C81.7157 75 75 81.7157 75 90C75 98.2843 81.7157 105 90 105Z" fill="#80DEEA"/>
</svg>
